<?xml version="1.0" standalone="no"?>
<!DOCTYPE svg PUBLIC "-//W3C//DTD SVG 20010904//EN"
 "http://www.w3.org/TR/2001/REC-SVG-20010904/DTD/svg10.dtd">
<svg version="1.0" xmlns="http://www.w3.org/2000/svg"
 width="512.000000pt" height="512.000000pt" viewBox="0 0 512.000000 512.000000"
 preserveAspectRatio="xMidYMid meet">

<g transform="translate(0.000000,512.000000) scale(0.100000,-0.100000)"
fill="#000000" stroke="none">
<path d="M2355 5114 c-27 -3 -108 -13 -180 -25 -505 -78 -972 -301 -1338 -637
-440 -405 -706 -902 -809 -1512 -33 -196 -33 -564 0 -760 56 -330 161 -634
304 -880 24 -41 53 -90 64 -109 79 -136 281 -375 441 -523 85 -78 286 -233
354 -272 19 -11 68 -40 109 -64 246 -143 550 -248 880 -304 115 -19 171 -23
380 -23 209 0 265 4 380 23 382 64 650 165 1000 375 136 81 372 282 511 434
80 87 226 275 266 343 210 350 311 618 375 1000 19 115 23 171 23 380 0 270
-15 394 -76 635 -57 222 -173 504 -277 670 -17 28 -39 64 -48 80 -63 113 -279
367 -431 507 -87 80 -280 229 -338 262 -16 9 -52 31 -80 48 -87 55 -296 154
-413 197 -285 104 -531 150 -837 155 -115 2 -232 2 -260 0z m75 -372 c5 -93 5
-94 42 -128 33 -29 45 -34 88 -34 43 0 55 5 88 34 37 34 37 35 42 128 l5 93
43 3 c51 4 319 -41 417 -69 202 -59 384 -134 543 -226 379 -217 707 -564 901
-950 81 -161 114 -246 167 -430 32 -110 76 -371 72 -425 l-3 -43 -93 -5 c-93
-5 -94 -5 -128 -42 -29 -33 -34 -45 -34 -88 0 -43 5 -55 34 -88 34 -37 35 -37
128 -42 l93 -5 3 -43 c4 -59 -42 -324 -79 -452 -109 -379 -303 -706 -583 -986
-280 -281 -607 -473 -988 -584 -129 -37 -386 -82 -448 -78 l-45 3 -5 93 c-5
93 -5 94 -42 128 -33 29 -45 34 -88 34 -43 0 -55 -5 -88 -34 -37 -34 -37 -35
-42 -128 l-5 -93 -39 -3 c-43 -4 -272 30 -364 54 -422 108 -776 308 -1078 609
-246 245 -446 565 -549 880 -63 189 -119 469 -113 557 l3 43 93 5 c93 5 94 5
128 42 29 33 34 45 34 88 0 43 -5 55 -34 88 -34 37 -35 37 -128 42 l-93 5 2
80 c3 184 74 461 180 703 118 270 266 485 478 698 288 289 628 484 1040 598
101 28 327 65 385 63 l55 -2 5 -93z"/>
<path d="M2494 4291 c-69 -42 -64 25 -64 -925 l0 -860 387 -388 c268 -268 398
-391 420 -399 91 -30 188 59 168 154 -6 25 -84 109 -361 387 l-354 356 0 806
c0 802 0 805 -21 832 -44 56 -118 72 -175 37z"/>
</g>
</svg>
