<?xml version="1.0" standalone="no"?>
<!DOCTYPE svg PUBLIC "-//W3C//DTD SVG 20010904//EN"
 "http://www.w3.org/TR/2001/REC-SVG-20010904/DTD/svg10.dtd">
<svg version="1.0" xmlns="http://www.w3.org/2000/svg"
 width="512.000000pt" height="512.000000pt" viewBox="0 0 512.000000 512.000000"
 preserveAspectRatio="xMidYMid meet">

<g transform="translate(0.000000,512.000000) scale(0.100000,-0.100000)"
fill="#000000" stroke="none">
<path d="M162 4130 c3 -9 251 -194 903 -675 143 -105 411 -303 595 -440 761
-565 801 -593 852 -605 36 -9 60 -9 96 0 54 12 -39 -55 1446 1040 l915 675
-927 6 c-1586 10 -3884 10 -3880 -1z"/>
<path d="M132 2638 c3 -1266 4 -1304 22 -1340 11 -21 23 -38 27 -38 4 0 45 35
91 78 46 43 261 244 478 447 217 202 487 454 600 560 113 105 253 236 313 290
59 54 107 101 107 104 -1 3 -22 22 -48 41 -26 19 -182 134 -347 255 -165 122
-448 331 -630 465 -534 395 -596 440 -606 440 -6 0 -8 -512 -7 -1302z"/>
<path d="M4735 3767 c-127 -95 -395 -293 -595 -441 -201 -149 -459 -340 -574
-425 l-209 -155 44 -40 c113 -105 1112 -1038 1259 -1177 266 -250 278 -261
289 -255 6 4 17 30 26 58 13 45 15 213 15 1330 0 1016 -3 1278 -12 1277 -7 0
-117 -78 -243 -172z"/>
<path d="M2880 2400 c-168 -126 -311 -229 -318 -229 -7 -1 -148 100 -315 224
-166 124 -308 225 -315 225 -7 0 -122 -102 -255 -227 -133 -125 -332 -311
-442 -413 -110 -103 -339 -317 -510 -476 -170 -160 -330 -308 -355 -331 l-45
-42 30 -13 c24 -11 425 -13 2185 -16 1925 -2 2160 -1 2208 13 29 9 52 19 50
24 -2 6 -876 825 -1168 1095 -30 28 -123 114 -205 192 -178 168 -220 204 -231
203 -5 0 -146 -103 -314 -229z"/>
</g>
</svg>
