<?xml version="1.0" standalone="no"?>
<!DOCTYPE svg PUBLIC "-//W3C//DTD SVG 20010904//EN"
 "http://www.w3.org/TR/2001/REC-SVG-20010904/DTD/svg10.dtd">
<svg version="1.0" xmlns="http://www.w3.org/2000/svg"
 width="276.000000pt" height="512.000000pt" viewBox="0 0 276.000000 512.000000"
 preserveAspectRatio="xMidYMid meet">

<g transform="translate(0.000000,512.000000) scale(0.100000,-0.100000)"
fill="#000000" stroke="none">
<path d="M287 5109 c-99 -23 -200 -106 -246 -201 -12 -26 -27 -76 -32 -110
-12 -83 -12 -4393 0 -4476 19 -125 100 -236 214 -288 l62 -29 1095 0 1095 0
62 29 c114 52 195 163 214 288 12 83 12 4393 0 4476 -19 125 -100 236 -214
288 l-62 29 -1075 2 c-605 1 -1091 -3 -1113 -8z m157 -110 c50 -23 57 -103 13
-134 -31 -21 -83 -19 -107 5 -31 31 -27 93 6 119 30 24 52 26 88 10z m228 -36
c36 -32 17 -83 -32 -83 -48 0 -67 45 -33 82 20 22 41 23 65 1z m983 -83 c3
-11 3 -24 0 -30 -4 -6 -105 -10 -275 -10 -170 0 -271 4 -275 10 -3 6 -3 19 0
30 6 19 16 20 275 20 259 0 269 -1 275 -20z m945 -2320 l0 -1960 -1220 0
-1220 0 0 1960 0 1960 1220 0 1220 0 0 -1960z m-1013 -2100 c91 -55 87 -201
-7 -251 -30 -16 -58 -19 -200 -19 -142 0 -170 3 -200 19 -94 50 -98 196 -7
251 29 18 51 20 207 20 156 0 178 -2 207 -20z"/>
</g>
</svg>
